:SAMPLES-PER-SECOND 30
:FULLY-SPECIFIED
:DEGREES
458
root  49.3192 37.9883 2.72288 -6.42653 87.149 -1.55525
RightUpLeg  -19.6933 -1.01038 -5.67351
RightLeg  56.4555 -0.0654001 -0.503873
RightFoot  -6.0748 -0.452145 8.88402
RightToes  4.01633e-009 0 -3.6325e-017
Spine  20.7034 0.331939 7.44536
Spine1  12.027 5.18278 -12.3593
HEad  -7.54495 -1.98197 -0.342806
LeftShoulder1  1.63859 -4.53818 -13.3924
LeftArm  -12.8355 -66.6882 -43.3517
LeftForeArm  -0.887365 -12.0452 -4.06799
LeftHand  -0.0476647 6.38471 -1.36734
RightShoulder  0.934571 2.89151 7.02463
RightArm  -16.6523 71.3086 31.502
RightForeArm  -14.8915 -3.37643 1.6567
RightHand  -0.0414263 0.177781 -0.903919
LeftUpLeg  -17.65 12.4495 -0.137584
LeftLeg  20.565 -7.36968 -2.86492
LeftFoot  4.65686 -0.716868 4.8969
LeftToes  -1.95724e-009 9.62483e-011 3.51777e-011
459
root  49.7435 38.1577 2.59279 -13.4299 87.4442 -9.46161
RightUpLeg  -20.9656 1.1214 -5.43135
RightLeg  49.8128 -0.804516 -1.37018
RightFoot  -6.31861 -0.411832 8.37952
RightToes  4.01633e-009 0 -3.6325e-017
Spine  20.707 0.0151659 7.6386
Spine1  12.3218 4.98344 -12.341
HEad  -8.98657 -2.2511 -0.115927
LeftShoulder1  1.62695 -4.4429 -13.5024
LeftArm  -13.1263 -69.3174 -41.2491
LeftForeArm  -3.48632 -10.646 -4.6657
LeftHand  -0.0613594 6.49498 -2.50817
RightShoulder  0.942484 3.24012 6.29518
RightArm  -17.5394 71.1274 31.0283
RightForeArm  -19.164 -3.76822 1.57722
RightHand  -0.0779288 0.236337 -1.64075
LeftUpLeg  -17.6227 12.4314 -0.102108
LeftLeg  19.9185 -7.53712 -3.02833
LeftFoot  4.70267 -0.738424 5.03319
LeftToes  -1.95724e-009 9.62483e-011 3.51777e-011
460
root  50.1229 38.2584 2.54572 -17.9863 88.4395 -14.6421
RightUpLeg  -21.2738 3.66958 -5.75278
RightLeg  42.543 -0.522777 -0.839962
RightFoot  -6.92628 -0.352302 7.95724
RightToes  4.01633e-009 0 -3.6325e-017
Spine  21.3904 -0.42367 7.30728
Spine1  11.6319 4.42797 -12.1093
HEad  -9.60835 -2.49263 -0.234495
LeftShoulder1  1.68008 -5.01974 -12.6734
LeftArm  -13.7401 -69.7529 -40.1278
LeftForeArm  -4.68126 -10.6556 -4.7969
LeftHand  -0.0852498 7.40436 -2.37835
RightShoulder  0.971174 3.38433 6.45445
RightArm  -18.5066 70.4179 30.7254
RightForeArm  -17.6646 -2.8762 1.13458
RightHand  0.0217005 0.666891 0.359037
LeftUpLeg  -17.6519 12.3577 -0.345901
LeftLeg  19.7265 -8.30868 -3.43383
LeftFoot  4.66864 -0.771607 5.28068
LeftToes  -1.95724e-009 9.62483e-011 3.51777e-011
461
root  50.4612 38.312 2.53966 -0.419662 89.6169 2.63553
RightUpLeg  -20.6518 7.85706 -6.86012
RightLeg  34.7995 1.49506 0.863479
RightFoot  -7.87277 -0.320927 8.79265
RightToes  4.01633e-009 0 -3.6325e-017
Spine  21.9221 -0.754595 6.56875
Spine1  11.6863 4.01556 -12.0316
HEad  -10.5978 -2.85988 0.00991043
LeftShoulder1  1.70709 -5.64951 -11.4827
LeftArm  -14.6803 -70.26 -39.1684
LeftForeArm  -4.18868 -10.3163 -4.64256
LeftHand  -0.106605 7.46137 -3.3863
RightShoulder  0.97514 2.90386 7.69203
RightArm  -18.8977 70.2336 29.2905
RightForeArm  -19.5105 -2.07791 1.53639
RightHand  0.025825 1.24252 0.31236
LeftUpLeg  -17.3473 11.4455 -0.836907
LeftLeg  19.418 -8.38469 -3.58125
LeftFoot  4.46758 -0.741344 5.14065
LeftToes  -1.95724e-009 9.62483e-011 3.51777e-011
462
root  50.7494 38.4293 2.58002 -171.283 88.8814 -168.343
RightUpLeg  -19.0655 13.6236 -7.47197
RightLeg  26.4632 4.07055 1.98382
RightFoot  -7.66922 -0.32247 8.42503
RightToes  4.01633e-009 0 -3.6325e-017
Spine  22.4843 -0.997287 6.37165
Spine1  12.0791 3.44311 -10.6985
HEad  -11.5841 -3.55019 0.071247
LeftShoulder1  1.78589 -6.05882 -11.5177
LeftArm  -14.6445 -70.9884 -38.4854
LeftForeArm  -4.43898 -10.0476 -4.94523
LeftHand  -0.141628 8.08851 -3.98026
RightShoulder  0.956631 2.89395 7.40034
RightArm  -20.5357 68.4247 27.5698
RightForeArm  -22.7112 -0.909465 1.35867
RightHand  0.110803 2.00405 1.58607
LeftUpLeg  -16.6655 10.657 -0.799788
LeftLeg  18.5694 -9.09926 -3.75353
LeftFoot  4.63255 -0.750254 5.14287
LeftToes  -1.95724e-009 9.62483e-011 3.51777e-011
